#!OML:ASF F:\VICON\USERDATA\INSTALL\rory3\rory3.ASF
:FULLY-SPECIFIED
:DEGREES
2341
root -0.229058 17.2463 -1.53556 2.66533 10.9618 1.68783
lowerback 4.92714 0.189135 -2.45262
upperback 11.2803 0.205519 1.89793
thorax 9.15594 -0.187568 3.39911
lowerneck 21.1247 -17.673 -23.9126
upperneck 31.5739 -29.807 11.8252
head 13.3535 -15.9103 5.61134
rclavicle 8.34896e-015 -1.59028e-015
rhumerus 52.141 29.2399 -55.0507
rradius 24.8567
rwrist 13.5513
rhand -48.6298 5.1026
rfingers 7.12502
rthumb -21.2735 -23.7499
lclavicle 8.34896e-015 -1.59028e-015
lhumerus 60.9452 -9.21152 78.7103
lradius 112.78
lwrist 58.2068
lhand 38.3413 35.0896
lfingers 7.12502
lthumb 61.0065 47.768
rfemur -12.0965 3.67165 17.3232
rtibia 25.9638
rfoot -14.607 -14.779
rtoes -23.7065
lfemur -14.9865 -16.8818 -17.0388
ltibia 23.119
lfoot -11.3952 1.24251
ltoes -23.8916
2342
root -0.222918 17.2506 -1.54391 2.88302 10.758 1.75136
lowerback 4.94132 0.230941 -2.66932
upperback 11.31 0.264026 1.87385
thorax 9.17877 -0.177336 3.49709
lowerneck 21.2024 -17.6448 -24.0448
upperneck 31.7596 -29.7942 11.7656
head 13.4407 -15.9245 5.60865
rclavicle 1.78906e-014 -2.38542e-015
rhumerus 52.5413 30.3862 -53.7555
rradius 24.9821
rwrist 12.3164
rhand -47.9977 2.26915
rfingers 7.12502
rthumb -20.6662 -26.6506
lclavicle 1.78906e-014 -2.38542e-015
lhumerus 60.7649 -9.10308 78.2378
lradius 112.779
lwrist 58.2965
lhand 38.0533 35.0277
lfingers 7.12502
lthumb 60.7628 47.9815
rfemur -12.3389 3.79585 17.1979
rtibia 25.8352
rfoot -14.3926 -14.7359
rtoes -23.8224
lfemur -15.1795 -16.8075 -17.0663
ltibia 23.0634
lfoot -11.3283 1.35088
ltoes -23.5741
2343
root -0.214086 17.2551 -1.54804 3.04263 10.5539 1.79197
lowerback 4.93127 0.28488 -2.73542
upperback 11.3809 0.342953 1.78715
thorax 9.25879 -0.142022 3.445
lowerneck 21.0832 -17.7307 -23.9843
upperneck 32.1005 -29.8359 11.4944
head 13.563 -15.9401 5.47392
rclavicle 1.15295e-014 6.75868e-015
rhumerus 52.7875 31.2945 -52.8406
rradius 25.0607
rwrist 11.3681
rhand -47.0531 -0.31921
rfingers 7.12502
rthumb -19.7583 -29.335
lclavicle 1.15295e-014 6.75868e-015
lhumerus 60.6874 -8.99834 77.5665
lradius 112.76
lwrist 58.355
lhand 37.8888 34.8102
lfingers 7.12502
lthumb 60.6232 47.9192
rfemur -12.4821 3.91255 17.0917
rtibia 25.692
rfoot -14.2901 -14.674
rtoes -24.2221
lfemur -15.2953 -16.7666 -17.1008
ltibia 23.0271
lfoot -11.2997 1.46197
ltoes -23.7082
2344
root -0.204804 17.2577 -1.55389 3.21046 10.3755 1.80833
lowerback 4.99911 0.28782 -2.82173
upperback 11.3127 0.347153 1.74498
thorax 9.14185 -0.142398 3.44647
lowerneck 21.3386 -17.6365 -24.147
upperneck 32.2833 -29.7259 11.2957
head 13.5764 -15.9303 5.46144
rclavicle 2.5842e-014 -3.33958e-014
rhumerus 53.0077 32.535 -51.8087
rradius 25.2426
rwrist 10.2427
rhand -45.9876 -2.75012
rfingers 7.12502
rthumb -18.7338 -31.868
lclavicle 2.5842e-014 -3.33958e-014
lhumerus 60.412 -8.80598 76.9554
lradius 112.665
lwrist 58.3829
lhand 37.7007 34.4479
lfingers 7.12502
lthumb 60.4633 47.7324
rfemur -12.6509 3.99985 17.0082
rtibia 25.5589
rfoot -14.2113 -14.5469
rtoes -24.6224
lfemur -15.4377 -16.783 -17.0989
ltibia 22.9633
lfoot -11.2493 1.64357
ltoes -23.7689
2345
root -0.196453 17.2609 -1.5599 3.39042 10.1903 1.65688
lowerback 5.07875 0.0948744 -3.16602
upperback 11.0823 0.0684048 1.98024
thorax 8.86656 -0.315186 3.87995
lowerneck 21.8071 -17.2014 -24.9492
upperneck 32.4252 -29.2735 11.0112
head 13.5629 -15.8454 5.56563
rclavicle 7.95139e-016 -1.23246e-014
rhumerus 53.9122 34.7586 -49.8295
rradius 25.5619
rwrist 8.74585
rhand -44.9776 -5.20133
rfingers 7.12502
rthumb -17.7621 -34.4101
lclavicle 7.95139e-016 -1.23246e-014
lhumerus 59.5944 -7.96328 76.5223
lradius 112.638
lwrist 58.4172
lhand 37.4641 34.191
lfingers 7.12502
lthumb 60.2619 47.6934
rfemur -12.8448 4.14232 17.1166
rtibia 25.3891
rfoot -14.111 -14.4696
rtoes -24.7628
lfemur -15.6618 -16.7051 -16.8979
ltibia 22.9528
lfoot -11.24 1.74485
ltoes -23.7148
2346
root -0.187353 17.2656 -1.56196 3.59483 9.94278 1.52337
lowerback 5.02462 0.069316 -3.13067
upperback 10.9275 0.0303692 2.00653
thorax 8.72654 -0.327955 3.8851
lowerneck 22.2729 -16.9693 -25.4154
upperneck 32.5345 -29.099 10.936
head 13.5803 -15.8462 5.6611
rclavicle 1.59028e-015 -2.82274e-014
rhumerus 54.4985 36.3741 -48.2911
rradius 25.8207
rwrist 7.49873
rhand -44.4981 -7.10774
rfingers 7.12502
rthumb -17.3007 -36.3577
lclavicle 1.59028e-015 -2.82274e-014
lhumerus 59.0916 -7.63121 75.9089
lradius 112.616
lwrist 58.4989
lhand 37.2046 34.0125
lfingers 7.12502
lthumb 60.0403 47.7504
rfemur -13.0517 4.36169 17.1979
rtibia 25.201
rfoot -13.9758 -14.3923
rtoes -24.2479
lfemur -15.8908 -16.7014 -16.7025
ltibia 22.9606
lfoot -11.2748 1.92579
ltoes -22.8873
2347
root -0.178109 17.2701 -1.56569 3.75488 9.75258 1.37124
lowerback 4.95345 0.0626117 -3.09844
upperback 10.9532 0.021648 2.01356
thorax 8.79728 -0.332432 3.87501
lowerneck 22.4516 -16.9346 -25.5474
upperneck 32.4953 -29.0694 10.8583
head 13.5387 -15.8584 5.66701
rclavicle -1.19271e-015 -1.86858e-014
rhumerus 55.6018 37.752 -46.3475
rradius 26.005
rwrist 6.09902
rhand -44.1932 -8.66612
rfingers 7.12502
rthumb -17.0072 -37.9416
lclavicle -1.19271e-015 -1.86858e-014
lhumerus 59.013 -7.35865 75.1704
lradius 112.648
lwrist 58.4098
lhand 36.8504 33.6931
lfingers 7.12502
lthumb 59.737 47.7465
rfemur -13.2092 4.52007 17.3029
rtibia 25.0061
rfoot -13.8261 -14.3094
rtoes -23.9979
lfemur -16.0897 -16.7522 -16.4939
ltibia 22.9786
lfoot -11.2668 2.13003
ltoes -22.7596
2348
root -0.17053 17.2727 -1.56877 3.75859 9.67632 1.27897
lowerback 5.16552 0.0812607 -3.25015
upperback 10.955 0.0362369 2.10132
thorax 8.67846 -0.340019 4.05342
lowerneck 22.5234 -16.9968 -25.5743
upperneck 32.5929 -29.0996 10.5949
head 13.5349 -15.8849 5.56728
rclavicle 2.66371e-014 -2.22639e-014
rhumerus 57.025 39.1774 -43.7559
rradius 26.054
rwrist 4.50538
rhand -43.504 -10.3636
rfingers 7.12502
rthumb -16.3437 -39.695
lclavicle 2.66371e-014 -2.22639e-014
lhumerus 58.9048 -7.1606 74.5474
lradius 112.738
lwrist 58.2848
lhand 36.4137 33.4142
lfingers 7.12502
lthumb 59.3618 47.8475
rfemur -13.1647 4.60975 17.3629
rtibia 24.8402
rfoot -13.7509 -14.2649
rtoes -24.2315
lfemur -16.0879 -16.7769 -16.4114
ltibia 22.9676
lfoot -11.2479 2.23205
ltoes -22.9496
2349
root -0.166941 17.2731 -1.57187 3.64653 9.60843 1.28966
lowerback 5.64467 0.133054 -3.60584
upperback 10.8771 0.0829846 2.24682
thorax 8.31686 -0.343728 4.40632
lowerneck 22.7665 -17.0095 -25.7837
upperneck 32.7162 -29.1292 10.3356
head 13.5553 -15.9379 5.50213
rclavicle 2.14687e-014 4.37326e-015
rhumerus 58.4386 40.6408 -41.0225
rradius 26.0224
rwrist 3.14197
rhand -42.6166 -12.023
rfingers 7.12502
rthumb -15.4891 -41.4226
lclavicle 2.14687e-014 4.37326e-015
lhumerus 58.6083 -7.0044 73.9953
lradius 112.714
lwrist 58.2489
lhand 36.087 33.0235
lfingers 7.12502
lthumb 59.08 47.7346
rfemur -12.9783 4.60979 17.3478
rtibia 24.6962
rfoot -13.6475 -14.2315
rtoes -24.7484
lfemur -15.9442 -16.7415 -16.486
ltibia 22.9709
lfoot -11.3214 2.25564
ltoes -22.8243
